PathFileType	4	(X/Y/Z)	C:/Users/beibeiliu/ov580/test_trc/capture2\sequence.12_training_dense_left.trc
DataRate	CameraRate	NumFrames	NumMarkers	Units	OrigDataRate	OrigDataStartFrame	OrigNumFrames
120	120	14	19	mm	120	323	369
Frame#	Time	ThumbCMC			ThumbMCP			ThumbIP			ThumbTip			IndexMCP			IndexPIP			IndexTip			MiddleMCP			MiddlePIP			MiddleTip			RingMCP			RingPIP			RingTip			PinkyMCP			PinkyPIP			PinkyTip			BackHand1			BackHand2			BackHand3	
		X0	Y0	Z0	X1	Y1	Z1	X2	Y2	Z2	X3	Y3	Z3	X4	Y4	Z4	X5	Y5	Z5	X6	Y6	Z6	X7	Y7	Z7	X8	Y8	Z8	X9	Y9	Z9	X10	Y10	Z10	X11	Y11	Z11	X12	Y12	Z12	X13	Y13	Z13	X14	Y14	Z14	X15	Y15	Z15	X16	Y16	Z16	X17	Y17	Z17	X18	Y18	Z18	
322	2.68333	-81.5797	108.65	46.2793	-54.0989	115.53	22.2203	-38.5154	123.872	2.38167	-37.0143	123.436	-25.9787	-94.536	142.65	-23.1065	-72.5321	143.75	-38.357	-48.4341	122.59	-31.3011	-114.287	132.905	-31.2243	-110.345	139.183	-55.4934	-99.9736	155.273	-82.0938	-118.854	106.824	-38.5593	-116.425	117.332	-60.6984	-112.244	127.79	-82.3088	-115.585	83.9327	-38.8022	-113.798	82.9041	-62.4187	-117.761	89.7231	-80.3209	-125.932	86.5994	9.01814	-128.858	72.308	32.9218	-120.75	105.497	29.8187	
323	2.69167	-87.6495	116.4	40.4628	-61.5033	120.66	23.0496	-47.8646	127.487	2.10009	-40.6396	127.981	-23.5379	-100.511	137.909	-28.5144	-75.1973	144.067	-41.5489	-48.9097	121.836	-26.923	-117.246	122.447	-39.4941	-111.203	132.573	-64.1524	-100.283	142.187	-92.4543	-118.634	101.28	-45.8178	-115.275	103.081	-68.7193	-109.845	111.578	-94.2232	-111.531	74.1082	-40.6996	-108.532	73.098	-63.4515	-111.513	73.2318	-87.4533	-129.754	76.1428	4.42798	-129.282	69.4003	28.15	-124.998	106.317	27.3575	
324	2.7	-95.096	117.202	36.444	-69.3534	122.623	19.6071	-52.8198	133.728	-2.49315	-44.5126	131.221	-23.8205	-105.256	130.486	-33.4273	-76.9204	135.082	-46.4186	-52.7782	122.601	-27.4447	-119.024	111.023	-44.1229	-112.272	117.206	-70.1841	-100.928	125.043	-95.266	-116.009	91.8294	-49.1586	-111.896	93.6357	-71.2507	-104.163	97.9385	-99.3729	-107.228	66.4606	-39.6898	-100.059	61.754	-64.2016	-100.999	64.0772	-86.9662	-129.315	70.5926	-0.674135	-130.298	62.9322	27.3313	-131.211	97.4904	22.8149	
325	2.70833	-102.296	118.673	33.4015	-73.878	129.756	17.536	-59.333	136.92	-6.83148	-49.6094	132.18	-27.2364	-108.488	125.075	-36.669	-79.8503	133.574	-47.0542	-56.6055	123.407	-27.9773	-119.536	104.378	-50.8266	-111.57	109.075	-74.3512	-100.241	119.511	-99.1889	-114.717	79.8297	-49.3057	-108.495	82.4802	-77.4971	-101.667	88.8241	-99.42	-103.389	59.7286	-41.0668	-94.7548	56.9055	-64.5836	-92.3569	53.5741	-86.4867	-127.583	67.753	-2.94058	-128.778	59.859	23.4804	-132.775	96.0168	19.0616	
326	2.71667	-107.819	114.283	30.6153	-80.3356	130.25	14.8257	-66.2278	136.318	-3.23985	-54.2929	133.651	-28.9705	-112.578	121.94	-40.147	-81.0077	132.682	-48.8231	-60.1641	127.44	-25.8521	-120.491	98.3883	-51.0252	-110.107	103.094	-79.4318	-101.802	113.177	-99.946	-114.283	76.9995	-50.3441	-106.133	77.2563	-74.8044	-99.2335	84.09	-99.6605	-98.5997	56.2081	-43.699	-88.2904	51.5382	-62.8035	-87.752	48.0851	-82.6515	-126.629	61.2108	-4.9422	-131.199	56.8893	23.3865	-136.617	89.2329	16.0239	
327	2.725	-112.753	113.974	27.8565	-85.8609	131.138	15.4804	-69.9701	137.416	-8.54863	-58.19	135.726	-28.2741	-116.567	115.953	-42.0211	-86.6625	126.787	-52.0482	-64.7468	126.732	-31.0325	-119.599	92.8491	-55.0112	-108.035	96.0278	-80.212	-97.6253	103.234	-103.347	-109.729	69.5544	-52.4949	-103.212	70.4232	-74.7766	-94.7911	75.9378	-101.636	-94.9412	53.3034	-40.676	-82.9803	47.5538	-56.3451	-75.7687	44.065	-81.5957	-123.59	57.0732	-1.6115	-128.176	53.6044	27.5807	-138.045	84.5496	13.8986	
328	2.73333	-120.411	115.25	24.4255	-93.8439	128.614	10.9643	-78.3319	137.025	-12.2052	-64.3488	134.312	-29.2169	-120.649	111.261	-44.9453	-89.2868	125.321	-55.0924	-69.3493	127.358	-34.2104	-118.414	83.3218	-54.2759	-106.256	85.8193	-78.6394	-94.6905	97.5164	-105.502	-105.963	63.8329	-48.5518	-97.7014	63.6869	-72.2374	-89.2036	69.7055	-98.1582	-87.3222	46.2922	-34.3735	-75.1687	46.5331	-55.0883	-66.7658	41.7326	-78.9731	-120.837	51.977	-4.91634	-126.661	48.2458	24.0489	-142.843	80.4905	10.7969	
329	2.74167	-125.599	107.315	22.2289	-101.228	128.855	5.49401	-85.4569	139.878	-15.0064	-68.5741	135.864	-33.5416	-119.251	103.242	-51.8499	-96.0024	121.766	-58.648	-73.1085	126.097	-35.6823	-116.643	75.6479	-55.1113	-102.895	78.1847	-81.9182	-89.0308	86.0868	-108.977	-100.59	55.1143	-48.0061	-91.3561	57.9476	-75.5353	-81.9618	60.1266	-96.9979	-81.2389	46.005	-35.9679	-70.8492	46.1277	-52.0783	-58.8244	37.8213	-69.8533	-117.023	46.1183	-3.3465	-122.201	45.3153	24.095	-139.948	71.0686	9.52166	
330	2.75	-130.721	106.581	16.6288	-107.618	125.14	3.16992	-91.2342	133.48	-18.9755	-75.2996	137.527	-34.3492	-121.784	93.8182	-51.1703	-96.3169	112.322	-62.7711	-79.0711	127.576	-42.674	-112.812	67.0775	-58.4349	-101.428	70.8562	-83.1739	-86.0335	75.5476	-106.876	-99.16	52.6864	-46.2418	-88.6597	53.9512	-74.5701	-79.6628	56.6953	-96.7619	-76.1873	40.9497	-32.6093	-62.9017	42.039	-50.1459	-54.6281	36.2473	-67.3967	-117.598	45.0624	-0.106292	-123.033	41.7583	25.8945	-140.07	65.5436	8.5065	
331	2.75833	-133.015	99.1348	18.9149	-111.809	124.877	-1.39598	-97.6212	134.987	-18.2719	-77.7638	132.798	-40.3016	-120.991	88.9757	-55.835	-99.0764	105.209	-65.162	-79.0698	121.954	-41.2542	-114.131	62.0259	-54.8184	-100.381	63.8826	-80.8145	-85.9229	72.2577	-109.585	-96.0959	48.8086	-47.5765	-86.798	47.8855	-69.8229	-74.0354	49.4508	-93.0096	-76.864	41.5872	-28.4451	-59.2063	38.5143	-46.8173	-48.2487	30.8339	-65.9085	-115.097	43.2923	2.35586	-122.006	40.5615	31.2522	-140.828	60.0624	9.77485	
332	2.76667	-134.048	97.1407	13.4918	-114.408	119.04	0.380299	-99.8514	130.186	-20.3813	-83.8986	131.333	-37.7865	-122.749	83.2693	-53.3602	-98.7076	103.749	-65.8312	-81.3221	117.476	-43.002	-110.854	56.4424	-58.5302	-102.932	60.4483	-80.9136	-84.5228	64.6863	-105.558	-91.8397	42.0501	-45.4491	-81.7231	41.3029	-69.703	-74.1263	45.6839	-93.2648	-76.9825	40.097	-27.3544	-58.3576	35.6688	-47.6099	-46.4621	28.538	-60.7255	-111.95	39.1172	1.70255	-118.717	34.4049	28.6008	-139.199	55.1951	9.47702	
333	2.775	-136.892	94.8354	12.5762	-118.042	119.198	-1.06819	-101.759	128.391	-22.7123	-84.5404	127.673	-40.4886	-121.34	76.3647	-52.9117	-103.815	96.9412	-69.0518	-86.0971	116.624	-48.2323	-111.3	52.5029	-57.0319	-99.8521	54.6429	-81.993	-85.7009	60.0536	-105.991	-93.183	40.1343	-44.5821	-82.1377	39.0678	-68.749	-69.4157	39.7822	-94.9858	-72.6813	35.3649	-28.743	-62.9045	34.3702	-42.6798	-49.7695	25.2374	-60.6401	-109.792	36.2747	-0.848696	-120.719	36.2971	30.6835	-141.002	52.9378	6.66006	
334	2.78333	-135.049	88.8326	14.3508	-117.224	113.708	-2.85619	-101.285	122.179	-25.6282	-85.0749	122.597	-39.1199	-119.3	72.0163	-54.7525	-102.784	92.4977	-69.1085	-84.6894	113.29	-46.8307	-111.412	49.562	-53.5885	-100.665	50.6621	-80.2718	-87.2213	58.5349	-108.129	-95.693	38.3661	-48.3729	-80.7734	34.7702	-70.3814	-73.7905	37.9476	-91.5757	-75.9718	33.5953	-26.0592	-59.8391	29.8504	-43.3949	-48.1616	21.9473	-62.337	-111.621	33.5732	2.43559	-121.037	32.9752	29.5612	-141.665	52.1971	7.02793	
335	2.79167	-138.342	90.4454	11.4824	-116.393	108.562	-3.30539	-101.783	118.455	-25.243	-83.3946	116.462	-42.6598	-123.124	70.4521	-54.1419	-103.357	89.7739	-70.0745	-85.1606	108.476	-51.0407	-111.814	47.3533	-57.9582	-102.161	49.8092	-83.5344	-85.1255	53.7995	-106.767	-97.0129	36.4617	-44.6966	-83.4036	32.3096	-67.1331	-74.5669	34.2582	-94.9977	-73.6412	30.0295	-25.8028	-62.0824	28.967	-46.6853	-50.398	20.6627	-61.7953	-112.693	31.5881	0.788406	-122.42	30.8344	31.4366	-137.325	47.3473	8.00722	
